<svg xmlns="http://www.w3.org/2000/svg" viewBox="0 0 24 24" fill="#22c55e">
  <path d="M12 12 C9 9.5 7 6.8 7 4.8 C7 3 8.8 2 10.5 2.8 C11.5 3.3 12 4 12 4.8 C12 4 12.5 3.3 13.5 2.8 C15.2 2 17 3 17 4.8 C17 6.8 15 9.5 12 12 Z" />
  <path d="M12 12 C9 9.5 7 6.8 7 4.8 C7 3 8.8 2 10.5 2.8 C11.5 3.3 12 4 12 4.8 C12 4 12.5 3.3 13.5 2.8 C15.2 2 17 3 17 4.8 C17 6.8 15 9.5 12 12 Z" transform="rotate(90 12 12)" />
  <path d="M12 12 C9 9.5 7 6.8 7 4.8 C7 3 8.8 2 10.5 2.8 C11.5 3.3 12 4 12 4.8 C12 4 12.5 3.3 13.5 2.8 C15.2 2 17 3 17 4.8 C17 6.8 15 9.5 12 12 Z" transform="rotate(180 12 12)" />
  <path d="M12 12 C9 9.5 7 6.8 7 4.8 C7 3 8.8 2 10.5 2.8 C11.5 3.3 12 4 12 4.8 C12 4 12.5 3.3 13.5 2.8 C15.2 2 17 3 17 4.8 C17 6.8 15 9.5 12 12 Z" transform="rotate(270 12 12)" />
</svg>
